<?xml version="1.0" encoding="UTF-8" standalone="no"?>
<svg
   xmlns:dc="http://purl.org/dc/elements/1.1/"
   xmlns:cc="http://creativecommons.org/ns#"
   xmlns:rdf="http://www.w3.org/1999/02/22-rdf-syntax-ns#"
   xmlns:svg="http://www.w3.org/2000/svg"
   xmlns="http://www.w3.org/2000/svg"
   xmlns:sodipodi="http://sodipodi.sourceforge.net/DTD/sodipodi-0.dtd"
   xmlns:inkscape="http://www.inkscape.org/namespaces/inkscape"
   width="12mm"
   height="6mm"
   viewBox="0 0 12 6"
   version="1.1"
   id="svg961"
   inkscape:version="1.0.2 (e86c870879, 2021-01-15)"
   sodipodi:docname="galaxy.svg">
  <defs
     id="defs955" />
  <sodipodi:namedview
     id="base"
     pagecolor="#ffffff"
     bordercolor="#666666"
     borderopacity="1.0"
     inkscape:pageopacity="0.0"
     inkscape:pageshadow="2"
     inkscape:zoom="63.356767"
     inkscape:cx="22.366071"
     inkscape:cy="11.339286"
     inkscape:document-units="mm"
     inkscape:current-layer="layer1"
     inkscape:document-rotation="0"
     showgrid="false"
     inkscape:window-width="1536"
     inkscape:window-height="784"
     inkscape:window-x="0"
     inkscape:window-y="0"
     inkscape:window-maximized="1" />
  <metadata
     id="metadata958">
    <rdf:RDF>
      <cc:Work
         rdf:about="">
        <dc:format>image/svg+xml</dc:format>
        <dc:type
           rdf:resource="http://purl.org/dc/dcmitype/StillImage" />
        <dc:title></dc:title>
      </cc:Work>
    </rdf:RDF>
  </metadata>
  <g
     inkscape:label="Layer 1"
     inkscape:groupmode="layer"
     id="layer1">
    <path
       id="path1524-5"
       style="fill:none;fill-rule:evenodd;stroke:#000000;stroke-width:0.0779409;stroke-miterlimit:4;stroke-dasharray:none"
       d="m 5.4829575,2.9848206 c 0.04454,0.071532 0.1347661,0.1315 0.250434,0.1623398 0.2018051,0.053806 0.4590747,0.00585 0.5443057,-0.1228854 0.063947,-0.096585 -0.00113,-0.2195658 -0.1711589,-0.2550742 -0.1158569,-0.024196 -0.2651406,0.00709 -0.2954746,0.085065 -0.016958,0.043592 0.022454,0.1053179 0.1089012,0.1039147 0.0319,-5.17e-4 0.093436,-0.030197 0.046643,-0.047245 -0.046792,-0.017048 0.014743,-0.046728 0.046643,-0.047245 0.086447,-0.0014 0.1258592,0.060323 0.1089011,0.1039145 C 6.091818,3.0455817 5.9425347,3.0768664 5.8266779,3.0526707 5.6566533,3.017163 5.5915723,2.8941815 5.6555189,2.7975966 5.7407499,2.6688641 5.9980196,2.6209049 6.1998247,2.6747111 c 0.1156679,0.03084 0.2058938,0.090807 0.2504339,0.1623398"
       sodipodi:nodetypes="csssscccssssc" />
  </g>
</svg>
