<?xml version="1.0" encoding="UTF-8" standalone="no"?>
<svg
   xmlns:dc="http://purl.org/dc/elements/1.1/"
   xmlns:cc="http://creativecommons.org/ns#"
   xmlns:rdf="http://www.w3.org/1999/02/22-rdf-syntax-ns#"
   xmlns:svg="http://www.w3.org/2000/svg"
   xmlns="http://www.w3.org/2000/svg"
   xmlns:sodipodi="http://sodipodi.sourceforge.net/DTD/sodipodi-0.dtd"
   xmlns:inkscape="http://www.inkscape.org/namespaces/inkscape"
   width="12mm"
   height="6mm"
   viewBox="0 0 12 6"
   version="1.1"
   id="svg1574"
   inkscape:version="1.0.2 (e86c870879, 2021-01-15)"
   sodipodi:docname="rocket.svg">
  <defs
     id="defs1568" />
  <sodipodi:namedview
     id="base"
     pagecolor="#ffffff"
     bordercolor="#666666"
     borderopacity="1.0"
     inkscape:pageopacity="0.0"
     inkscape:pageshadow="2"
     inkscape:zoom="31.678384"
     inkscape:cx="18.853607"
     inkscape:cy="11.36188"
     inkscape:document-units="mm"
     inkscape:current-layer="layer1"
     inkscape:document-rotation="0"
     showgrid="false"
     inkscape:window-width="1536"
     inkscape:window-height="784"
     inkscape:window-x="0"
     inkscape:window-y="0"
     inkscape:window-maximized="1" />
  <metadata
     id="metadata1571">
    <rdf:RDF>
      <cc:Work
         rdf:about="">
        <dc:format>image/svg+xml</dc:format>
        <dc:type
           rdf:resource="http://purl.org/dc/dcmitype/StillImage" />
        <dc:title></dc:title>
      </cc:Work>
    </rdf:RDF>
  </metadata>
  <g
     inkscape:label="Layer 1"
     inkscape:groupmode="layer"
     id="layer1">
    <path
       style="fill:none;stroke:#000000;stroke-width:0.0893132;stroke-linecap:butt;stroke-linejoin:miter;stroke-miterlimit:4;stroke-dasharray:none;stroke-opacity:1"
       d="m 8.7115178,2.5777266 c 0,0 -0.7725541,-0.2439339 -1.2260459,-0.3346789 C 7.0319801,2.1523029 6.5200826,2.0755039 5.9834837,2.0719139 5.4468848,2.0683317 4.8171552,2.0987417 4.4649491,2.1777107 4.1127429,2.2566799 3.8611358,2.3177663 3.6629511,2.4328654 3.5693702,2.487214 3.3763545,2.6034642 3.2940085,2.6943542 3.2019629,2.7959496 3.1131799,2.9145015 3.1131799,2.9145015 c 0,0 0.088783,0.1185519 0.1808286,0.2201473 0.082346,0.09089 0.2753617,0.2071402 0.3689426,0.2614888 0.1981847,0.1150991 0.4497918,0.1761855 0.801998,0.2551547 0.3522061,0.078969 0.9819357,0.109379 1.5185346,0.1057968 0.5365989,-0.00359 1.0484964,-0.080389 1.5019882,-0.1711338 0.4534918,-0.090745 1.2260459,-0.3346789 1.2260459,-0.3346789 z"
       id="path2137"
       sodipodi:nodetypes="czzzsscsszzzcc" />
    <path
       style="fill:none;stroke:#000000;stroke-width:0.1;stroke-linecap:butt;stroke-linejoin:miter;stroke-miterlimit:4;stroke-dasharray:none;stroke-opacity:1"
       d="m 3.9981325,3.5385049 c 0,0 -0.095757,-0.413381 -0.098785,-0.6334976 -0.0035,-0.2547286 0.098277,-0.6119506 0.098277,-0.6119506"
       id="path2219"
       sodipodi:nodetypes="csc" />
    <path
       style="fill:none;stroke:#000000;stroke-width:0.1;stroke-linecap:butt;stroke-linejoin:miter;stroke-miterlimit:4;stroke-dasharray:none;stroke-opacity:1"
       d="m 8.3317663,2.4633351 c 0,0 0.03468,0.3116299 0.034686,0.4471628 6.5e-6,0.1405745 -0.033186,0.4655492 -0.033186,0.4655492"
       id="path2221"
       sodipodi:nodetypes="csc" />
    <path
       style="fill:none;stroke:#000000;stroke-width:0.1;stroke-linecap:butt;stroke-linejoin:miter;stroke-miterlimit:4;stroke-dasharray:none;stroke-opacity:1"
       d="m 8.358885,2.6477785 0.343556,0.06042"
       id="path2223"
       sodipodi:nodetypes="cc" />
    <path
       style="fill:none;stroke:#000000;stroke-width:0.1;stroke-linecap:butt;stroke-linejoin:miter;stroke-miterlimit:4;stroke-dasharray:none;stroke-opacity:1"
       d="m 8.354075,2.8282192 0.3529339,0.016299"
       id="path2223-2"
       sodipodi:nodetypes="cc" />
    <path
       style="fill:none;stroke:#000000;stroke-width:0.1;stroke-linecap:butt;stroke-linejoin:miter;stroke-miterlimit:4;stroke-dasharray:none;stroke-opacity:1"
       d="m 8.3760952,3.1798319 0.343556,-0.06042"
       id="path2223-9"
       sodipodi:nodetypes="cc" />
    <path
       style="fill:none;stroke:#000000;stroke-width:0.1;stroke-linecap:butt;stroke-linejoin:miter;stroke-miterlimit:4;stroke-dasharray:none;stroke-opacity:1"
       d="M 8.3712852,2.9993912 8.7242191,2.9830922"
       id="path2223-2-3"
       sodipodi:nodetypes="cc" />
    <circle
       style="fill:none;stroke:#000000;stroke-width:0.0828708;stroke-miterlimit:4;stroke-dasharray:none"
       id="path2297"
       cx="4.813086"
       cy="2.9262199"
       r="0.57840109" />
    <path
       style="fill:none;stroke:#000000;stroke-width:0.1;stroke-linecap:butt;stroke-linejoin:miter;stroke-miterlimit:4;stroke-dasharray:none;stroke-opacity:1"
       d="m 8.1756874,2.4184182 c 0,0 0.1925041,-0.3881918 0.3145343,-0.5717859 0.09943,-0.1495915 0.3366117,-0.4207938 0.3366117,-0.4207938 0,0 -0.7050506,0.045112 -1.0281534,0.1731391 C 7.4862886,1.7227601 6.9682583,2.148801 6.9682583,2.148801 c 0,0 0.4205104,0.072801 0.6319289,0.1202169 0.1936219,0.043425 0.5755002,0.1494003 0.5755002,0.1494003 z"
       id="path2299"
       sodipodi:nodetypes="cscscsc" />
    <path
       style="fill:none;stroke:#000000;stroke-width:0.1;stroke-linecap:butt;stroke-linejoin:miter;stroke-miterlimit:4;stroke-dasharray:none;stroke-opacity:1"
       d="m 8.140244,3.4175572 c 0,0 0.1925041,0.3881918 0.3145343,0.5717859 0.09943,0.1495915 0.3366117,0.4207938 0.3366117,0.4207938 0,0 -0.7050506,-0.045112 -1.0281534,-0.1731391 C 7.4508452,4.1132153 6.9328149,3.6871744 6.9328149,3.6871744 c 0,0 0.4205104,-0.072801 0.6319289,-0.1202169 C 7.7583657,3.5235325 8.140244,3.4175572 8.140244,3.4175572 Z"
       id="path2299-6"
       sodipodi:nodetypes="cscscsc" />
  </g>
</svg>
